<?xml version="1.0" standalone="no"?>
<!DOCTYPE svg PUBLIC "-//W3C//DTD SVG 1.1//EN" "http://www.w3.org/Graphics/SVG/1.1/DTD/svg11.dtd" >
<svg xmlns="http://www.w3.org/2000/svg" xmlns:xlink="http://www.w3.org/1999/xlink" version="1.1" viewBox="-10 0 1034 1024">
  <g transform="matrix(1 0 0 -1 0 1024)">
   <path fill="currentColor"
d="M512 981v-170l86 -1v86h170v-85l-256 -171v-86l342 1v85h-215l213 128l2 213h-342zM85 982l341 -1v-469h-85v171h-169l1 85l169 -1v129h-171l-1 -342h-85v428zM170 470h342v-428h-342v333h85l1 -247h170v254l-256 2v86zM938 256l-214 -128h215v-86h-341v86l256 171v85
h-173l1 -85l-84 -1l-1 171l341 1v-214z" />
  </g>

</svg>
